<svg width="295" height="93" viewBox="0 0 295 93" fill="none" xmlns="http://www.w3.org/2000/svg">
<path d="M110.111 64.672C104.703 64.672 100.575 63.168 97.727 60.16C94.911 57.152 93.503 52.88 93.503 47.344C93.503 44.592 93.935 42.144 94.799 40C95.663 37.824 96.847 36 98.351 34.528C99.855 33.024 101.647 31.888 103.727 31.12C105.807 30.352 108.063 29.968 110.495 29.968C111.903 29.968 113.183 30.08 114.335 30.304C115.487 30.496 116.495 30.736 117.359 31.024C118.223 31.28 118.943 31.552 119.519 31.84C120.095 32.128 120.511 32.352 120.767 32.512L118.607 38.56C117.583 38.016 116.383 37.552 115.007 37.168C113.663 36.784 112.127 36.592 110.399 36.592C109.247 36.592 108.111 36.784 106.991 37.168C105.903 37.552 104.927 38.176 104.063 39.04C103.231 39.872 102.559 40.96 102.047 42.304C101.535 43.648 101.279 45.28 101.279 47.2C101.279 48.736 101.439 50.176 101.759 51.52C102.111 52.832 102.655 53.968 103.391 54.928C104.159 55.888 105.151 56.656 106.367 57.232C107.583 57.776 109.055 58.048 110.783 58.048C111.871 58.048 112.847 57.984 113.711 57.856C114.575 57.728 115.343 57.584 116.015 57.424C116.687 57.232 117.279 57.024 117.791 56.8C118.303 56.576 118.767 56.368 119.183 56.176L121.247 62.176C120.191 62.816 118.703 63.392 116.783 63.904C114.863 64.416 112.639 64.672 110.111 64.672ZM121.426 51.568C121.426 49.328 121.762 47.376 122.434 45.712C123.138 44.016 124.05 42.608 125.17 41.488C126.29 40.368 127.57 39.52 129.01 38.944C130.482 38.368 131.986 38.08 133.522 38.08C137.106 38.08 139.938 39.184 142.018 41.392C144.098 43.568 145.138 46.784 145.138 51.04C145.138 51.456 145.122 51.92 145.09 52.432C145.058 52.912 145.026 53.344 144.994 53.728H128.77C128.93 55.2 129.618 56.368 130.834 57.232C132.05 58.096 133.682 58.528 135.73 58.528C137.042 58.528 138.322 58.416 139.57 58.192C140.85 57.936 141.89 57.632 142.69 57.28L143.65 63.088C143.266 63.28 142.754 63.472 142.114 63.664C141.474 63.856 140.754 64.016 139.954 64.144C139.186 64.304 138.354 64.432 137.458 64.528C136.562 64.624 135.666 64.672 134.77 64.672C132.498 64.672 130.514 64.336 128.818 63.664C127.154 62.992 125.762 62.08 124.642 60.928C123.554 59.744 122.738 58.352 122.194 56.752C121.682 55.152 121.426 53.424 121.426 51.568ZM138.226 48.832C138.194 48.224 138.082 47.632 137.89 47.056C137.73 46.48 137.458 45.968 137.074 45.52C136.722 45.072 136.258 44.704 135.682 44.416C135.138 44.128 134.45 43.984 133.618 43.984C132.818 43.984 132.13 44.128 131.554 44.416C130.978 44.672 130.498 45.024 130.114 45.472C129.73 45.92 129.426 46.448 129.202 47.056C129.01 47.632 128.866 48.224 128.77 48.832H138.226ZM158.337 64.48C156.257 64.448 154.561 64.224 153.249 63.808C151.969 63.392 150.945 62.816 150.177 62.08C149.441 61.312 148.929 60.4 148.641 59.344C148.385 58.256 148.257 57.04 148.257 55.696V27.904L155.409 26.752V54.256C155.409 54.896 155.457 55.472 155.553 55.984C155.649 56.496 155.825 56.928 156.081 57.28C156.369 57.632 156.769 57.92 157.281 58.144C157.793 58.368 158.481 58.512 159.345 58.576L158.337 64.48ZM158.884 46.432H172.804V52.912H158.884V46.432ZM184.509 58.288C185.565 58.288 186.429 58.208 187.101 58.048C187.805 57.856 188.365 57.616 188.781 57.328C189.197 57.008 189.485 56.64 189.645 56.224C189.805 55.808 189.885 55.344 189.885 54.832C189.885 53.744 189.373 52.848 188.349 52.144C187.325 51.408 185.565 50.624 183.069 49.792C181.981 49.408 180.893 48.976 179.805 48.496C178.717 47.984 177.741 47.36 176.877 46.624C176.013 45.856 175.309 44.944 174.765 43.888C174.221 42.8 173.949 41.488 173.949 39.952C173.949 38.416 174.237 37.04 174.813 35.824C175.389 34.576 176.205 33.52 177.261 32.656C178.317 31.792 179.597 31.136 181.101 30.688C182.605 30.208 184.301 29.968 186.189 29.968C188.429 29.968 190.365 30.208 191.997 30.688C193.629 31.168 194.973 31.696 196.029 32.272L193.869 38.176C192.941 37.696 191.901 37.28 190.749 36.928C189.629 36.544 188.269 36.352 186.669 36.352C184.877 36.352 183.581 36.608 182.781 37.12C182.013 37.6 181.629 38.352 181.629 39.376C181.629 39.984 181.773 40.496 182.061 40.912C182.349 41.328 182.749 41.712 183.261 42.064C183.805 42.384 184.413 42.688 185.085 42.976C185.789 43.232 186.557 43.504 187.389 43.792C189.117 44.432 190.621 45.072 191.901 45.712C193.181 46.32 194.237 47.04 195.069 47.872C195.933 48.704 196.573 49.68 196.989 50.8C197.405 51.92 197.613 53.28 197.613 54.88C197.613 57.984 196.525 60.4 194.349 62.128C192.173 63.824 188.893 64.672 184.509 64.672C183.037 64.672 181.709 64.576 180.525 64.384C179.341 64.224 178.285 64.016 177.357 63.76C176.461 63.504 175.677 63.232 175.005 62.944C174.365 62.656 173.821 62.384 173.373 62.128L175.485 56.176C176.477 56.72 177.693 57.216 179.133 57.664C180.605 58.08 182.397 58.288 184.509 58.288ZM200.494 64V27.904L207.646 26.752V38.848C208.126 38.688 208.734 38.544 209.47 38.416C210.238 38.256 210.974 38.176 211.678 38.176C213.726 38.176 215.422 38.464 216.766 39.04C218.142 39.584 219.23 40.368 220.03 41.392C220.862 42.416 221.438 43.632 221.758 45.04C222.11 46.448 222.286 48.016 222.286 49.744V64H215.134V50.608C215.134 48.304 214.83 46.672 214.222 45.712C213.646 44.752 212.558 44.272 210.958 44.272C210.318 44.272 209.71 44.336 209.134 44.464C208.59 44.56 208.094 44.672 207.646 44.8V64H200.494ZM249.976 51.328C249.976 53.312 249.688 55.136 249.112 56.8C248.536 58.432 247.704 59.84 246.616 61.024C245.528 62.176 244.216 63.072 242.68 63.712C241.176 64.352 239.48 64.672 237.592 64.672C235.736 64.672 234.04 64.352 232.504 63.712C231 63.072 229.704 62.176 228.616 61.024C227.528 59.84 226.68 58.432 226.072 56.8C225.464 55.136 225.16 53.312 225.16 51.328C225.16 49.344 225.464 47.536 226.072 45.904C226.712 44.272 227.576 42.88 228.664 41.728C229.784 40.576 231.096 39.68 232.6 39.04C234.136 38.4 235.8 38.08 237.592 38.08C239.416 38.08 241.08 38.4 242.584 39.04C244.12 39.68 245.432 40.576 246.52 41.728C247.608 42.88 248.456 44.272 249.064 45.904C249.672 47.536 249.976 49.344 249.976 51.328ZM242.68 51.328C242.68 49.12 242.232 47.392 241.336 46.144C240.472 44.864 239.224 44.224 237.592 44.224C235.96 44.224 234.696 44.864 233.8 46.144C232.904 47.392 232.456 49.12 232.456 51.328C232.456 53.536 232.904 55.296 233.8 56.608C234.696 57.888 235.96 58.528 237.592 58.528C239.224 58.528 240.472 57.888 241.336 56.608C242.232 55.296 242.68 53.536 242.68 51.328ZM252.876 32.464L260.028 31.312V38.752H268.62V44.704H260.028V53.584C260.028 55.088 260.284 56.288 260.796 57.184C261.34 58.08 262.412 58.528 264.012 58.528C264.78 58.528 265.564 58.464 266.364 58.336C267.196 58.176 267.948 57.968 268.62 57.712L269.628 63.28C268.764 63.632 267.804 63.936 266.748 64.192C265.692 64.448 264.396 64.576 262.86 64.576C260.908 64.576 259.292 64.32 258.012 63.808C256.732 63.264 255.708 62.528 254.94 61.6C254.172 60.64 253.628 59.488 253.308 58.144C253.02 56.8 252.876 55.312 252.876 53.68V32.464Z" fill="white"/>
<path fill-rule="evenodd" clip-rule="evenodd" d="M46.6376 13H76.5685C79.0621 13 81.103 15.0349 81.103 17.5254V75.4746C81.103 77.967 79.0621 80 76.5685 80H46.6376C44.1439 80 42.103 77.9632 42.103 75.4727C42.103 72 45.2584 71.625 45.2584 71.625H77.9477V20.1767H45.2584C45.2584 20.1767 42.103 20.0159 42.103 17.5254C42.103 15.0349 44.1439 13 46.6376 13ZM66.3907 16.2619H56.8153C56.5122 16.2619 56.2667 16.507 56.2667 16.8113C56.2667 17.1138 56.5122 17.3588 56.8153 17.3588H66.3907C66.6938 17.3588 66.9393 17.1138 66.9393 16.8113C66.9393 16.507 66.6938 16.2619 66.3907 16.2619ZM59.3358 75.4727C59.3358 76.7247 60.3505 77.7373 61.603 77.7373C62.8556 77.7373 63.8703 76.7247 63.8703 75.4727C63.8703 74.2208 62.8556 73.21 61.603 73.21C60.3505 73.21 59.3358 74.2208 59.3358 75.4727Z" fill="white"/>
<path fill-rule="evenodd" clip-rule="evenodd" d="M53.5542 52.5518C53.9149 50.5071 54.1031 48.4029 54.1031 46.2548C54.1031 43.9592 53.8882 41.7138 53.4775 39.5376C55.3133 37.3747 58.0506 36 61.103 36C66.617 36 71.103 40.4861 71.103 46C71.103 51.5139 66.617 56 61.103 56C58.0929 56 55.3891 54.663 53.5542 52.5518ZM58.603 41V50.9999L66.103 45.9999L58.603 41Z" fill="white"/>
<path d="M33.0795 74.5411C43.2059 69.1684 50.103 58.5171 50.103 46.2549C50.103 33.9926 43.2059 23.3413 33.0795 17.9686L31.1599 21.4792C40.0465 26.1722 46.103 35.5062 46.103 46.2549C46.103 57.0035 40.0465 66.3376 31.1599 71.0305L33.0795 74.5411Z" fill="white"/>
<path d="M29.2402 67.5198C36.887 63.5066 42.103 55.4899 42.103 46.2549C42.103 37.0198 36.887 29.0031 29.2402 24.9899L27.3205 28.5009C33.7274 31.834 38.103 38.5334 38.103 46.2549C38.103 53.9763 33.7274 60.6757 27.3205 64.0088L29.2402 67.5198Z" fill="white"/>
<path d="M24.9205 59.6196C29.7777 57.137 33.103 52.0843 33.103 46.2549C33.103 40.4255 29.7777 35.3727 24.9205 32.8901L23 36.4023C26.6176 38.2038 29.103 41.9391 29.103 46.2549C29.103 50.5706 26.6176 54.3059 23 56.1074L24.9205 59.6196Z" fill="white"/>
</svg>
